<?xml version="1.0" standalone="no"?>
<!DOCTYPE svg PUBLIC "-//W3C//DTD SVG 20010904//EN"
 "http://www.w3.org/TR/2001/REC-SVG-20010904/DTD/svg10.dtd">
<svg version="1.0" xmlns="http://www.w3.org/2000/svg"
 width="512.000000pt" height="512.000000pt" viewBox="0 0 512.000000 512.000000"
 preserveAspectRatio="xMidYMid meet">
<metadata>
Created by potrace 1.11, written by Peter Selinger 2001-2013
</metadata>
<g transform="translate(0.000000,512.000000) scale(0.100000,-0.100000)"
fill="#000000" stroke="none">
<path d="M2379 5116 c-2 -2 -38 -6 -79 -10 -64 -6 -213 -30 -315 -51 -16 -3
-69 -17 -116 -30 -1011 -284 -1748 -1159 -1857 -2205 -14 -140 -7 -504 12
-615 3 -16 8 -43 10 -60 2 -16 12 -66 21 -110 176 -845 769 -1544 1580 -1861
138 -54 197 -58 244 -18 17 14 34 40 39 57 6 25 8 383 3 500 -1 19 -3 19 -81
1 -14 -4 -88 -8 -165 -10 -154 -4 -220 7 -327 52 -149 62 -216 132 -308 319
-74 149 -148 252 -220 301 -110 77 -154 122 -143 150 13 34 124 44 206 19 124
-37 212 -111 311 -260 122 -183 256 -263 444 -263 113 0 291 45 293 74 1 8 2
17 3 22 28 123 60 196 117 263 l38 47 -52 7 c-52 7 -59 8 -127 20 -394 69
-673 248 -833 535 -36 65 -101 245 -112 310 -3 19 -8 42 -10 50 -2 8 -7 42
-11 75 -3 33 -8 69 -10 80 -9 42 -5 293 5 357 28 173 116 366 217 478 30 33
33 41 24 64 -5 15 -12 37 -14 49 -2 12 -9 42 -15 67 -11 45 -8 279 3 335 4 17
18 69 33 118 22 72 30 87 47 89 146 11 332 -52 568 -193 l121 -72 46 12 c25 7
55 14 66 16 11 2 45 8 75 14 161 31 271 41 450 41 168 -1 257 -8 415 -35 17
-3 46 -8 65 -11 19 -3 60 -12 91 -20 31 -8 61 -14 66 -14 6 0 39 19 74 41 139
90 342 185 437 204 172 35 199 28 224 -60 38 -140 47 -202 44 -330 -3 -133 -5
-145 -30 -228 -14 -47 -14 -49 13 -80 120 -143 200 -324 227 -516 5 -39 5
-259 -1 -316 -11 -112 -18 -155 -42 -253 -29 -124 -80 -247 -138 -337 -27 -42
-104 -136 -134 -163 -14 -13 -39 -36 -56 -51 -142 -128 -442 -240 -738 -274
-21 -3 -40 -7 -42 -9 -2 -2 12 -21 31 -42 32 -36 91 -145 99 -184 2 -9 9 -39
16 -67 9 -36 13 -170 13 -486 1 -397 3 -438 19 -462 62 -95 170 -76 499 89
661 330 1155 949 1332 1669 27 108 30 127 51 260 27 174 27 557 1 710 -3 17
-8 44 -10 60 -3 17 -10 55 -16 85 -6 30 -14 66 -16 80 -11 55 -56 205 -88 292
-190 518 -520 940 -978 1252 -54 36 -101 66 -105 66 -3 0 -14 6 -22 14 -20 18
-257 137 -331 166 -159 64 -360 122 -515 149 -57 10 -76 13 -170 27 -46 6
-460 16 -466 10z"/>
</g>
</svg>
